<?xml version="1.0" encoding="utf-8"?>
<!-- Generator: Adobe Illustrator 24.3.0, SVG Export Plug-In . SVG Version: 6.00 Build 0)  -->
<svg version="1.1" id="图层_1" xmlns="http://www.w3.org/2000/svg" xmlns:xlink="http://www.w3.org/1999/xlink" x="0px" y="0px"
	 viewBox="0 0 400 400" style="enable-background:new 0 0 400 400;" xml:space="preserve">
<style type="text/css">
	.st0{fill:#F4BD49;}
</style>
<g>
	<g>
		<path class="st0" d="M128.9,126.8h191.2c31.4,0,56.9,25.5,56.9,56.9v4.6c0,31.4-25.5,56.9-56.9,56.9H128.9
			c-31.4,0-56.9-25.5-56.9-56.9v-4.6C72,152.3,97.5,126.8,128.9,126.8z"/>
		<circle class="st0" cx="128.2" cy="137.9" r="104.8"/>
	</g>
	<g>
		<path class="st0" d="M209.2,255.1L209.2,255.1c4.4,0.7,7.4,4.8,6.8,9.2l-7.7,50.2c-0.7,4.4-4.8,7.4-9.2,6.8l0,0
			c-4.4-0.7-7.4-4.8-6.8-9.2l7.7-50.2C200.7,257.5,204.8,254.4,209.2,255.1z"/>
		<path class="st0" d="M247.6,300.6L247.6,300.6c1.3,4.3-1.2,8.8-5.5,10l-38.2,11.2c-4.3,1.3-8.8-1.2-10-5.5l0,0
			c-1.3-4.3,1.2-8.8,5.5-10l38.2-11.2C241.8,293.9,246.3,296.4,247.6,300.6z"/>
		<path class="st0" d="M241.3,296.6L241.3,296.6c4.4,0.7,7.4,4.8,6.8,9.2l-7.7,50.2c-0.7,4.4-4.8,7.4-9.2,6.8l0,0
			c-4.4-0.7-7.4-4.8-6.8-9.2l7.7-50.2C232.7,298.9,236.9,295.9,241.3,296.6z"/>
	</g>
	<ellipse transform="matrix(0.866 -0.5 0.5 0.866 -133.7883 102.326)" class="st0" cx="124" cy="300.8" rx="13.2" ry="29.9"/>
	<ellipse transform="matrix(0.866 -0.5 0.5 0.866 -109.3471 192.8712)" class="st0" cx="305.2" cy="300.5" rx="13.2" ry="29.9"/>
</g>
</svg>
