<?xml version="1.0" encoding="utf-8"?>
<!-- Generator: Adobe Illustrator 24.3.0, SVG Export Plug-In . SVG Version: 6.00 Build 0)  -->
<svg version="1.1" id="图层_1" xmlns="http://www.w3.org/2000/svg" xmlns:xlink="http://www.w3.org/1999/xlink" x="0px" y="0px"
	 viewBox="0 0 400 400" style="enable-background:new 0 0 400 400;" xml:space="preserve">
<style type="text/css">
	.st0{fill:#F4BD49;}
</style>
<g>
	<g>
		<path class="st0" d="M133.5,152.7h178.4c29.3,0,53.1,23.8,53.1,53.1v3.8c0,29.3-23.8,53.1-53.1,53.1H133.5
			c-29.3,0-53.1-23.8-53.1-53.1v-3.8C80.4,176.5,104.1,152.7,133.5,152.7z"/>
		<circle class="st0" cx="132.9" cy="163.6" r="97.9"/>
	</g>
	<g>
		<path class="st0" d="M123.7,275.1L123.7,275.1c2.7,0,4.8,2.2,4.8,4.8v49.5c0,2.7-2.2,4.8-4.8,4.8h0c-2.7,0-4.8-2.2-4.8-4.8v-49.5
			C118.9,277.3,121,275.1,123.7,275.1z"/>
		<path class="st0" d="M150.1,289.2L150.1,289.2c1.4,2.5,0.6,5.6-1.9,7l-42.9,24.8c-2.5,1.4-5.6,0.6-7-1.9l0,0
			c-1.4-2.5-0.6-5.6,1.9-7l42.9-24.8C145.5,285.9,148.7,286.7,150.1,289.2z"/>
		<path class="st0" d="M150.2,318.6L150.2,318.6c-1.4,2.5-4.5,3.4-7,2.1l-43.4-23.7c-2.5-1.4-3.4-4.5-2-7l0,0c1.4-2.5,4.5-3.4,7-2
			l43.4,23.7C150.6,313,151.5,316.1,150.2,318.6z"/>
	</g>
	<g>
		<path class="st0" d="M210.3,275.1L210.3,275.1c2.7,0,4.8,2.2,4.8,4.8v49.5c0,2.7-2.2,4.8-4.8,4.8l0,0c-2.7,0-4.8-2.2-4.8-4.8
			v-49.5C205.5,277.3,207.7,275.1,210.3,275.1z"/>
		<path class="st0" d="M236.2,289.5L236.2,289.5c1.4,2.4,0.6,5.5-1.9,6.9L191.9,321c-2.4,1.4-5.5,0.6-6.9-1.9l0,0
			c-1.4-2.4-0.6-5.5,1.9-6.9l42.4-24.5C231.7,286.3,234.8,287.1,236.2,289.5z"/>
		<path class="st0" d="M236.3,318.6L236.3,318.6c-1.3,2.5-4.4,3.4-6.9,2l-43-23.5c-2.5-1.3-3.4-4.4-2-6.9l0,0c1.3-2.5,4.4-3.4,6.9-2
			l43,23.5C236.8,313.1,237.7,316.2,236.3,318.6z"/>
	</g>
	<g>
		<path class="st0" d="M295.6,275.1L295.6,275.1c2.7,0,4.8,2.2,4.8,4.8v49.5c0,2.7-2.2,4.8-4.8,4.8h0c-2.7,0-4.8-2.2-4.8-4.8v-49.5
			C290.8,277.3,292.9,275.1,295.6,275.1z"/>
		<path class="st0" d="M321.5,289.5L321.5,289.5c1.4,2.4,0.6,5.5-1.9,6.9l-42.4,24.5c-2.4,1.4-5.5,0.6-6.9-1.9l0,0
			c-1.4-2.4-0.6-5.5,1.9-6.9l42.4-24.5C317,286.3,320.1,287.1,321.5,289.5z"/>
		<path class="st0" d="M321.6,318.6L321.6,318.6c-1.3,2.5-4.4,3.4-6.9,2l-43-23.5c-2.5-1.3-3.4-4.4-2-6.9l0,0c1.3-2.5,4.4-3.4,6.9-2
			l43,23.5C322.1,313.1,323,316.2,321.6,318.6z"/>
	</g>
</g>
</svg>
