<?xml version="1.0" encoding="utf-8"?>
<!-- Generator: Adobe Illustrator 24.3.0, SVG Export Plug-In . SVG Version: 6.00 Build 0)  -->
<svg version="1.1" id="图层_1" xmlns="http://www.w3.org/2000/svg" xmlns:xlink="http://www.w3.org/1999/xlink" x="0px" y="0px"
	 viewBox="0 0 400 400" style="enable-background:new 0 0 400 400;" xml:space="preserve">
<style type="text/css">
	.st0{fill:#F4BD49;}
	.st1{fill:#F7E4A0;}
</style>
<g>
	<g>
		<path class="st0" d="M157.5,177.2H336c29.3,0,53,23.7,53,53v4.1c0,29.3-23.7,53-53,53H157.5c-29.3,0-53-23.7-53-53v-4.1
			C104.5,200.9,128.2,177.2,157.5,177.2z"/>
		<circle class="st0" cx="157.7" cy="187" r="97.7"/>
	</g>
	<g>
		<path class="st1" d="M112.8,197.9h178.5c29.3,0,53,23.7,53,53v4.1c0,29.3-23.7,53-53,53H112.8c-29.3,0-53-23.7-53-53v-4.1
			C59.8,221.6,83.5,197.9,112.8,197.9z"/>
		<circle class="st1" cx="112.1" cy="208.1" r="97.7"/>
	</g>
</g>
</svg>
