<?xml version="1.0" encoding="utf-8"?>
<!-- Generator: Adobe Illustrator 24.3.0, SVG Export Plug-In . SVG Version: 6.00 Build 0)  -->
<svg version="1.1" id="图层_1" xmlns="http://www.w3.org/2000/svg" xmlns:xlink="http://www.w3.org/1999/xlink" x="0px" y="0px"
	 viewBox="0 0 400 400" style="enable-background:new 0 0 400 400;" xml:space="preserve">
<style type="text/css">
	.st0{fill:#F4BD49;}
</style>
<g>
	<g>
		<path class="st0" d="M132.5,145.4h167.6c27.5,0,49.8,22.3,49.8,49.8v3.9c0,27.5-22.3,49.8-49.8,49.8H132.5
			c-27.5,0-49.8-22.3-49.8-49.8v-3.9C82.7,167.7,105,145.4,132.5,145.4z"/>
		<circle class="st0" cx="131.8" cy="155.4" r="91.8"/>
	</g>
	<ellipse transform="matrix(0.866 -0.5 0.5 0.866 -133.2344 106.2398)" class="st0" cx="131.6" cy="301.7" rx="11.6" ry="26.2"/>
	<ellipse transform="matrix(0.866 -0.5 0.5 0.866 -121.8555 148.1049)" class="st0" cx="215.4" cy="301.4" rx="11.6" ry="26.2"/>
	<ellipse transform="matrix(0.866 -0.5 0.5 0.866 -111.8138 185.581)" class="st0" cx="290.4" cy="301.4" rx="11.6" ry="26.2"/>
</g>
</svg>
