<?xml version="1.0" encoding="utf-8"?>
<!-- Generator: Adobe Illustrator 24.3.0, SVG Export Plug-In . SVG Version: 6.00 Build 0)  -->
<svg version="1.1" id="图层_1" xmlns="http://www.w3.org/2000/svg" xmlns:xlink="http://www.w3.org/1999/xlink" x="0px" y="0px"
	 viewBox="0 0 400 400" style="enable-background:new 0 0 400 400;" xml:space="preserve">
<style type="text/css">
	.st0{fill:#F7E4A0;}
	.st1{fill:#F4BD49;}
</style>
<g>
	<circle class="st0" cx="225.3" cy="201.2" r="71"/>
	<path class="st1" d="M125.1,231h165.7c27.1,0,49.1,22,49.1,49.1v3.7c0,27.1-22,49.1-49.1,49.1H125.1C98,333,76,311,76,283.9v-3.7
		C76,253,98,231,125.1,231z"/>
	<circle class="st1" cx="125.5" cy="240.2" r="90.5"/>
	<g>
		
			<ellipse transform="matrix(8.941577e-02 -0.996 0.996 8.941577e-02 122.5955 313.8573)" class="st1" cx="232.9" cy="89.9" rx="22.8" ry="10.1"/>
		
			<ellipse transform="matrix(0.9314 -0.3641 0.3641 0.9314 -40.4513 131.8672)" class="st1" cx="329.6" cy="173.2" rx="22.8" ry="10.1"/>
		
			<ellipse transform="matrix(0.6246 -0.781 0.781 0.6246 18.2143 273.1068)" class="st1" cx="293.2" cy="117.6" rx="22.8" ry="10.1"/>
	</g>
	<ellipse transform="matrix(0.866 -0.5 0.5 0.866 -27.3923 103.564)" class="st1" cx="179.6" cy="102.9" rx="10.1" ry="22.8"/>
	
		<ellipse transform="matrix(0.1975 -0.9803 0.9803 0.1975 46.6054 506.318)" class="st1" cx="332.5" cy="224.7" rx="10.1" ry="22.8"/>
	<ellipse transform="matrix(0.3894 -0.921 0.921 0.3894 -42.6707 209.6072)" class="st1" cx="136.8" cy="137" rx="10.1" ry="22.8"/>
</g>
</svg>
