<?xml version="1.0" encoding="utf-8"?>
<!-- Generator: Adobe Illustrator 24.3.0, SVG Export Plug-In . SVG Version: 6.00 Build 0)  -->
<svg version="1.1" id="图层_1" xmlns="http://www.w3.org/2000/svg" xmlns:xlink="http://www.w3.org/1999/xlink" x="0px" y="0px"
	 viewBox="0 0 400 400" style="enable-background:new 0 0 400 400;" xml:space="preserve">
<style type="text/css">
	.st0{fill:#F4BD49;}
</style>
<g>
	<g>
		<path class="st0" d="M130.2,151h185.7c30.5,0,55.2,24.7,55.2,55.2v4.7c0,30.5-24.7,55.2-55.2,55.2H130.2
			C99.7,266,75,241.3,75,210.8v-4.7C75,175.7,99.7,151,130.2,151z"/>
		<circle class="st0" cx="130.2" cy="162.4" r="101.7"/>
	</g>
	<g>
		<path class="st0" d="M121.3,277h0.3c2.9,0,5.3,2.4,5.3,5.3v51.3c0,2.9-2.4,5.3-5.3,5.3h-0.3c-2.9,0-5.3-2.4-5.3-5.3v-51.3
			C116,279.4,118.4,277,121.3,277z"/>
		<path class="st0" d="M148.1,292.9L148.1,292.9c1.5,2.6,0.6,5.8-1.9,7.3l-44.5,25.7c-2.5,1.5-5.8,0.6-7.3-1.9l0,0
			c-1.5-2.5-0.6-5.8,1.9-7.3l44.5-25.7C143.4,289.4,146.7,290.3,148.1,292.9z"/>
		<path class="st0" d="M148.2,323.4L148.2,323.4c-1.4,2.6-4.6,3.5-7.2,2.1l-45.1-24.6c-2.6-1.4-3.5-4.6-2.1-7.2l0,0
			c1.4-2.6,4.6-3.5,7.2-2.1l45.1,24.6C148.7,317.6,149.7,320.8,148.2,323.4z"/>
	</g>
	<g>
		<path class="st0" d="M211.3,278h0.5c2.9,0,5.3,2.4,5.3,5.3v50.5c0,2.9-2.4,5.3-5.3,5.3h-0.5c-2.9,0-5.3-2.4-5.3-5.3v-50.5
			C206,280.4,208.4,278,211.3,278z"/>
		<path class="st0" d="M237.6,293.3L237.6,293.3c1.5,2.5,0.6,5.8-1.9,7.2l-44.1,25.4c-2.5,1.5-5.7,0.6-7.2-1.9l0,0
			c-1.5-2.5-0.6-5.7,1.9-7.2l44.1-25.4C232.9,289.9,236.1,290.7,237.6,293.3z"/>
		<path class="st0" d="M237.7,323.5L237.7,323.5c-1.4,2.6-4.6,3.5-7.2,2.1l-44.7-24.4c-2.6-1.4-3.5-4.6-2.1-7.2l0,0
			c1.4-2.6,4.6-3.5,7.2-2.1l44.7,24.4C238.2,317.7,239.1,320.9,237.7,323.5z"/>
	</g>
	<g>
		<path class="st0" d="M299.3,278h0.5c2.9,0,5.3,2.4,5.3,5.3v50.5c0,2.9-2.4,5.3-5.3,5.3h-0.5c-2.9,0-5.3-2.4-5.3-5.3v-50.5
			C294,280.4,296.4,278,299.3,278z"/>
		<path class="st0" d="M326.2,293.2L326.2,293.2c1.5,2.5,0.6,5.8-1.9,7.2l-44.1,25.4c-2.5,1.5-5.7,0.6-7.2-1.9l0,0
			c-1.5-2.5-0.6-5.7,1.9-7.2l44.1-25.4C321.6,289.8,324.8,290.7,326.2,293.2z"/>
		<path class="st0" d="M326.4,323.5L326.4,323.5c-1.4,2.6-4.6,3.5-7.2,2.1l-44.7-24.4c-2.6-1.4-3.5-4.6-2.1-7.2l0,0
			c1.4-2.6,4.6-3.5,7.2-2.1l44.7,24.4C326.8,317.7,327.8,320.9,326.4,323.5z"/>
	</g>
</g>
</svg>
