<?xml version="1.0" encoding="utf-8"?>
<!-- Generator: Adobe Illustrator 24.3.0, SVG Export Plug-In . SVG Version: 6.00 Build 0)  -->
<svg version="1.1" xmlns="http://www.w3.org/2000/svg" xmlns:xlink="http://www.w3.org/1999/xlink" x="0px" y="0px"
	 viewBox="0 0 400 400" style="enable-background:new 0 0 400 400;" xml:space="preserve">
<style type="text/css">
	.st0{fill:#F7E4A0;}
	.st1{fill:#F4BD49;}
</style>
<g id="图层_1">
</g>
<g id="图层_2">
	<circle class="st0" cx="199.6" cy="197.6" r="87.5"/>
	<ellipse class="st1" cx="212" cy="56.3" rx="12.4" ry="28.1"/>
	<ellipse transform="matrix(0.866 -0.5 0.5 0.866 -18.3585 74.6747)" class="st1" cx="130.2" cy="71.6" rx="12.4" ry="28.1"/>
	<ellipse transform="matrix(0.5 -0.866 0.866 0.5 -74.6949 122.9858)" class="st1" cx="69.2" cy="126.2" rx="12.4" ry="28.1"/>
	<ellipse transform="matrix(0.976 -0.2178 0.2178 0.976 -45.4238 16.5464)" class="st1" cx="52.3" cy="214.3" rx="28.1" ry="12.4"/>
	
		<ellipse transform="matrix(0.7363 -0.6766 0.6766 0.7363 -174.3983 134.2553)" class="st1" cx="85.1" cy="290.9" rx="28.1" ry="12.4"/>
	
		<ellipse transform="matrix(0.2994 -0.9541 0.9541 0.2994 -216.7949 381.8322)" class="st1" cx="151.6" cy="338.5" rx="28.1" ry="12.4"/>
	
		<ellipse transform="matrix(0.9477 -0.3191 0.3191 0.9477 -96.9451 93.0253)" class="st1" cx="235.4" cy="342.4" rx="12.4" ry="28.1"/>
	
		<ellipse transform="matrix(0.6612 -0.7502 0.7502 0.6612 -122.0043 333.4225)" class="st1" cx="308.1" cy="301.8" rx="12.4" ry="28.1"/>
	
		<ellipse transform="matrix(0.1975 -0.9803 0.9803 0.1975 53.6609 526.7092)" class="st1" cx="348.5" cy="230.6" rx="12.4" ry="28.1"/>
	
		<ellipse transform="matrix(0.8951 -0.4459 0.4459 0.8951 -30.3455 167.0016)" class="st1" cx="339.7" cy="148" rx="28.1" ry="12.4"/>
	<ellipse transform="matrix(0.5522 -0.8337 0.8337 0.5522 59.5727 278.4226)" class="st1" cx="289" cy="83.8" rx="28.1" ry="12.4"/>
</g>
</svg>
