<?xml version="1.0" encoding="UTF-8"?>
<svg xmlns="http://www.w3.org/2000/svg" viewBox="0 0 1391.83 816.6">
  <defs>
    <style>
      .cls-1 {
        fill: rgba(251, 176, 59, .3);
        stroke: #fbb03b;
        stroke-miterlimit: 10;
      }

      .cls-2 {
        fill: #fff;
      }

      .cls-2, .cls-3 {
        stroke-width: 0px;
      }

      .cls-3 {
        fill: #f7931e;
        opacity: .8;
      }
    </style>
  </defs>
  <g id="_图层_8" data-name="图层 8">
    <path class="cls-2" d="m769.15,200.12c80.7,26.69,138.85,101.96,138.85,190.64,0,111.01-91.11,201-203.5,201s-203.5-89.99-203.5-201c0-87.54,59.92-162.43,139-190l61.83,194,67.32-194.64Z"/>
  </g>
  <g id="_图层_7" data-name="图层 7">
    <path class="cls-3" d="m654.12,405.19l-124.86-2.72c-2.01-.04-3.74,1.39-4.08,3.38-2.21,12.97-7.52,58.79,24.87,73.06,1.25.55,2.7.44,3.85-.3l102.33-65.97c3.36-2.16,1.89-7.36-2.11-7.45Z"/>
    <g>
      <path class="cls-1" d="m690.59,412.28l-135.68,92.28s32.54,75.68,84.85,62.9l56.07-151.07c1.19-3.19-2.43-6.03-5.25-4.11Z"/>
      <path class="cls-3" d="m673.84,432.45l-103.19,70.35c-1.66,1.13-2.24,3.31-1.36,5.12,5.73,11.84,28.05,52.21,62.7,45,1.34-.28,2.45-1.21,2.96-2.48l44.94-113.15c1.47-3.71-2.75-7.09-6.04-4.84Z"/>
    </g>
    <path class="cls-1" d="m706.43,419.13l-57.41,153.72s70.29,42.96,105.6,2.3l-41.53-155.7c-.88-3.29-5.47-3.51-6.66-.32Z"/>
    <path class="cls-3" d="m704.41,445.28l-43.57,117.05c-.7,1.88.09,3.99,1.85,4.96,11.52,6.35,53.06,26.4,77.18.5.93-1,1.3-2.4.98-3.73l-28.71-118.32c-.94-3.88-6.34-4.2-7.73-.46Z"/>
    <path class="cls-1" d="m679.48,398.51l-164.04-3.75s-17.5,80.5,32.5,100.5l133.43-90.35c2.82-1.91,1.52-6.32-1.88-6.4Z"/>
    <path class="cls-3" d="m733.51,440.16l43.24,117.17c.7,1.89,2.67,2.97,4.64,2.56,12.88-2.69,57.45-14.55,58.86-49.92.05-1.37-.58-2.67-1.69-3.47l-98.88-71.03c-3.24-2.33-7.54.94-6.16,4.69Z"/>
    <g>
      <path class="cls-1" d="m728.73,403.63l135.59,92.41s58.49-58.02,27.42-102l-161.11,3.2c-3.41.07-4.72,4.47-1.9,6.39Z"/>
      <path class="cls-3" d="m753.65,411.82l103.28,70.23c1.66,1.13,3.9.87,5.26-.61,8.91-9.68,38.3-45.23,18.89-74.83-.75-1.14-2.02-1.84-3.39-1.84l-121.75-.34c-3.99-.01-5.59,5.15-2.29,7.4Z"/>
    </g>
    <path class="cls-1" d="m731.3,386.38l164.06-2.93s14.21-81.15-36.56-99.1l-129.64,95.71c-2.74,2.02-1.27,6.37,2.14,6.31Z"/>
    <path class="cls-3" d="m756.37,378.67l124.87-2.36c2.01-.04,3.68-1.54,3.94-3.54,1.68-13.05,5.12-59.05-27.83-71.99-1.27-.5-2.71-.33-3.83.46l-99.56,70.08c-3.27,2.3-1.59,7.44,2.41,7.36Z"/>
    <path class="cls-1" d="m718,419.02l56.64,154s81.31-13.22,81.59-67.07l-132.97-91.02c-2.81-1.93-6.44.9-5.26,4.1Z"/>
    <g>
      <path class="cls-1" d="m689.49,371.36l-48.37-156.79s-81.9,8.88-85.04,62.64l127.95,97.96c2.71,2.07,6.48-.55,5.47-3.81Z"/>
      <path class="cls-3" d="m675.12,349.42l-36.95-119.3c-.6-1.92-2.51-3.11-4.49-2.8-13,2.01-58.14,11.48-61.43,46.72-.13,1.36.44,2.7,1.5,3.55l94.97,76.18c3.11,2.5,7.58-.54,6.4-4.36Z"/>
    </g>
    <path class="cls-1" d="m678.29,384.49l-130.08-100.02s-61.71,54.57-33.21,100.27l161.03,6.02c3.41.13,4.97-4.19,2.26-6.27Z"/>
    <path class="cls-3" d="m653.89,374.89l-99.09-76.02c-1.6-1.22-3.84-1.09-5.29.31-9.45,9.15-40.82,42.97-23.14,73.63.68,1.18,1.92,1.95,3.28,2.03l121.53,7.3c3.99.24,5.88-4.82,2.71-7.25Z"/>
    <path class="cls-1" d="m724.32,369.97l131.02-98.79s-36.19-74-87.82-58.69l-48.64,153.62c-1.03,3.25,2.72,5.9,5.44,3.85Z"/>
    <path class="cls-3" d="m740.08,349l99.64-75.3c1.6-1.21,2.07-3.41,1.11-5.18-6.31-11.55-30.56-50.78-64.82-41.89-1.32.34-2.39,1.33-2.83,2.62l-39.37,115.21c-1.29,3.78,3.09,6.95,6.27,4.54Z"/>
  </g>
</svg>